<?xml version="1.0" standalone="no"?>
<!DOCTYPE svg PUBLIC "-//W3C//DTD SVG 20010904//EN"
 "http://www.w3.org/TR/2001/REC-SVG-20010904/DTD/svg10.dtd">
<svg version="1.0" xmlns="http://www.w3.org/2000/svg"
 width="11706.000000pt" height="5667.000000pt" viewBox="0 0 11706.000000 5667.000000"
 preserveAspectRatio="xMidYMid meet">

<g transform="translate(0.000000,5667.000000) scale(0.100000,-0.100000)"
fill="#000000" stroke="none">
<path d="M50765 56598 c-66 -33 -145 -69 -175 -80 -73 -25 -262 -67 -557 -123
-613 -116 -897 -204 -1283 -401 -605 -308 -1021 -734 -1298 -1331 -450 -968
-591 -2108 -416 -3358 121 -862 380 -1859 998 -3840 672 -2156 847 -2768 986
-3450 155 -760 217 -1437 179 -1977 -53 -772 -259 -1409 -641 -1983 -313 -470
-731 -877 -1068 -1039 -163 -79 -1332 -480 -1940 -666 -1179 -361 -4219 -1180
-4840 -1304 -454 -91 -758 -75 -1082 55 -112 45 -157 49 -272 19 -376 -96
-548 -465 -365 -786 65 -114 178 -208 289 -241 89 -26 173 -31 360 -21 466 23
1003 115 1550 264 527 143 1030 317 2175 749 1119 423 1826 680 3445 1252
1036 366 2234 772 2755 933 1441 446 2621 659 3665 660 277 0 614 14 1123 46
352 21 419 28 490 49 140 40 137 38 137 88 l0 44 -100 22 c-113 24 -317 27
-595 11 -82 -5 -501 -14 -930 -19 -1421 -18 -1741 -52 -2590 -276 -415 -109
-1642 -395 -1695 -395 -26 0 -164 36 -186 48 -10 6 -5 26 19 87 30 73 42 89
148 195 184 183 305 383 442 730 163 414 235 753 267 1270 13 214 13 1000 0
1245 -36 665 -120 1324 -271 2123 -96 510 -197 978 -478 2207 -273 1193 -361
1597 -465 2115 -195 978 -329 1884 -367 2495 -14 234 -6 694 16 895 32 293
102 631 180 865 43 129 153 362 220 466 275 426 710 741 1235 893 300 88 589
127 1160 158 307 17 1306 17 1580 0 1514 -93 2827 -307 5715 -932 303 -66 789
-171 1081 -234 2111 -458 3746 -763 4924 -920 761 -102 1643 -179 2460 -216
124 -5 272 -12 330 -15 547 -27 1770 -25 2470 5 1130 48 2039 154 3020 350
1005 201 1875 451 2939 844 511 189 1349 452 1478 463 216 18 380 -82 510
-312 144 -256 226 -451 257 -610 17 -88 57 -567 81 -970 62 -1064 67 -1837 20
-3055 -24 -630 -29 -916 -16 -1015 22 -176 19 -165 56 -165 39 0 26 -33 124
306 67 232 80 303 160 874 185 1308 249 1977 267 2770 16 734 -45 1348 -192
1920 -73 284 -134 432 -241 594 -158 238 -374 391 -652 463 -119 30 -332 41
-466 24 -236 -31 -1817 -418 -2820 -691 -738 -200 -1089 -285 -1618 -391 -839
-168 -1581 -258 -2382 -290 -404 -16 -827 -5 -1745 46 -245 14 -591 32 -770
40 -1665 77 -3013 296 -6175 1001 -2087 466 -2464 548 -3195 698 -1008 207
-1555 296 -2695 441 -1420 180 -1491 191 -1900 300 l-170 45 -1270 -1 -1270 0
-120 -61z"/>
<path d="M32610 44514 c-2227 -105 -4209 -631 -6310 -1675 -1769 -878 -3294
-1972 -4670 -3349 -735 -735 -1241 -1356 -1622 -1990 -436 -727 -713 -1494
-805 -2230 -22 -181 -26 -744 -5 -910 62 -500 190 -930 415 -1386 396 -800
980 -1460 1912 -2159 1095 -821 2175 -1354 4135 -2040 1430 -500 2695 -856
3888 -1094 523 -105 986 -180 2138 -345 1964 -283 3011 -379 4884 -448 444
-16 1978 -16 2390 0 1174 47 1638 85 3205 267 5088 590 5869 716 9117 1474
1986 464 3270 799 4948 1293 3437 1011 5761 1748 7955 2521 2312 816 5272
1935 10135 3832 503 196 1536 599 2295 895 2797 1091 4007 1566 5675 2230
1459 581 2089 819 2955 1120 2101 729 4076 1222 5530 1379 535 58 890 75 1425
68 404 -5 490 -10 750 -43 592 -74 1155 -259 1608 -527 175 -104 217 -170 171
-270 -40 -90 -490 -526 -933 -906 -560 -480 -1170 -932 -2037 -1511 -505 -337
-600 -395 -729 -451 -228 -98 -355 -118 -1410 -214 -272 -25 -616 -59 -765
-75 -463 -50 -543 -55 -1025 -54 -490 0 -658 8 -1465 69 -689 52 -910 65
-1128 65 -149 0 -199 -3 -202 -12 -3 -7 -6 -35 -7 -61 l-3 -49 100 -40 c99
-40 103 -40 425 -73 179 -19 570 -61 870 -94 783 -87 1030 -110 1450 -135 517
-32 1070 -30 1446 5 121 11 140 7 258 -47 l56 -26 -45 -87 c-25 -48 -55 -97
-68 -109 -44 -41 -1309 -697 -1807 -937 -722 -349 -1686 -788 -2770 -1262
-432 -189 -581 -233 -873 -255 -193 -14 -636 -1 -1182 37 -198 13 -490 31
-650 40 -1053 56 -1353 94 -1990 250 -310 76 -616 163 -1130 320 -895 274
-949 289 -1065 283 -64 -3 -64 -3 -74 -37 -9 -31 -7 -36 25 -62 82 -70 181
-128 280 -163 57 -21 226 -84 374 -138 1010 -374 1282 -443 2940 -748 724
-133 953 -178 990 -197 25 -13 125 -85 160 -115 11 -10 -126 -152 -168 -174
-60 -32 -1350 -480 -1777 -617 -786 -253 -1875 -555 -2713 -752 -1330 -312
-2527 -498 -3657 -570 -135 -8 -301 -19 -370 -23 -108 -7 -137 -13 -212 -43
l-88 -34 0 -38 c0 -44 7 -48 130 -71 68 -13 113 -14 278 -6 108 5 301 14 427
20 456 21 537 30 1310 141 1464 212 2274 341 3100 494 388 72 568 111 905 196
278 69 382 98 1175 322 668 188 643 183 748 167 l89 -12 -7 -36 c-4 -20 -18
-71 -31 -114 -28 -88 -18 -75 -765 -1028 -677 -864 -737 -945 -1068 -1434
-178 -262 -182 -269 -164 -288 41 -46 44 -45 186 82 111 98 161 152 278 302
725 925 1588 1780 2609 2585 622 489 703 532 1670 879 501 179 749 283 2135
891 1242 546 1203 529 1345 568 73 19 135 34 137 31 3 -2 -75 -143 -173 -313
-433 -750 -580 -1016 -709 -1279 -252 -514 -435 -1098 -435 -1389 0 -85 8
-145 19 -145 3 1 35 47 71 103 35 56 91 145 124 197 33 52 153 277 266 500
241 473 295 566 471 812 316 440 645 851 982 1228 180 201 660 678 847 841
577 505 1067 841 1750 1199 309 162 669 358 1020 553 511 285 835 471 2350
1352 272 158 542 311 600 339 94 46 111 51 171 51 76 0 97 -13 130 -77 86
-168 125 -966 74 -1493 -33 -342 -84 -633 -180 -1015 -318 -1265 -829 -2272
-1591 -3130 -1388 -1565 -3311 -2611 -6064 -3299 -814 -204 -1460 -326 -2538
-482 -1486 -213 -2594 -326 -3637 -369 -783 -32 -3981 -47 -4800 -22 -2669 80
-5023 264 -7800 608 -340 42 -383 46 -533 41 -89 -2 -164 -6 -166 -8 -2 -2 -7
-18 -10 -36 l-7 -31 153 -60 c179 -70 178 -70 1163 -266 3188 -634 5373 -970
7485 -1151 1815 -155 4095 -208 5635 -130 1322 67 2480 218 4495 584 548 100
762 142 1015 203 2035 482 4029 1481 5535 2773 333 285 741 678 1015 975 695
755 1254 1536 1630 2275 607 1195 830 2421 674 3715 -196 1634 -1076 2898
-2494 3581 -648 312 -1362 486 -2335 569 -201 18 -867 24 -1120 11 -979 -50
-2159 -252 -4010 -686 -1404 -329 -1927 -489 -3885 -1193 -2502 -899 -5051
-1858 -10175 -3827 -1143 -439 -1315 -505 -3080 -1170 -4219 -1591 -6038
-2249 -8770 -3175 -2298 -778 -3660 -1204 -5465 -1710 -4200 -1176 -7168
-1870 -9765 -2284 -2657 -423 -5427 -753 -7025 -836 -527 -27 -706 -32 -1460
-37 -1568 -11 -2728 49 -4535 232 -2595 264 -3868 451 -5435 800 -1548 344
-2711 713 -3765 1192 -895 407 -1604 838 -2166 1318 -187 158 -495 470 -613
619 -213 268 -408 608 -515 899 -275 750 -242 1571 95 2359 274 642 715 1345
1296 2068 661 823 1488 1637 2333 2296 1275 994 2667 1790 4040 2309 1812 685
3676 992 5835 961 1963 -28 3554 -271 5260 -806 143 -45 463 -140 710 -211
248 -71 458 -132 467 -135 12 -3 22 4 32 25 9 17 16 35 16 41 0 16 -236 169
-327 211 -90 42 -894 363 -1228 491 -1226 468 -2391 795 -3483 978 -532 88
-966 137 -1602 181 -154 10 -1335 20 -1500 13z"/>
<path d="M6115 24233 c-704 -48 -1401 -241 -2083 -578 -758 -373 -1358 -806
-1932 -1391 -274 -280 -477 -522 -693 -826 -543 -766 -929 -1606 -1156 -2513
-326 -1307 -330 -2863 -11 -4170 268 -1096 770 -2097 1476 -2946 161 -194 573
-607 764 -766 980 -816 2157 -1323 3380 -1457 361 -40 858 -51 1145 -27 767
66 1403 280 2009 678 265 174 462 336 711 587 267 268 479 533 711 886 l118
179 48 -151 c159 -491 393 -1277 559 -1871 55 -199 102 -368 104 -374 3 -10
76 -13 320 -13 l315 0 2 2773 3 2772 23 73 c38 122 78 190 161 272 109 108
211 157 421 203 88 18 137 20 643 24 l547 4 0 335 0 334 -2965 0 -2965 0 0
-334 0 -335 753 -4 c621 -3 766 -7 833 -19 222 -43 361 -101 465 -197 82 -74
123 -137 158 -239 l26 -77 0 -875 c0 -780 -2 -891 -18 -1025 -87 -721 -303
-1260 -710 -1765 -103 -127 -363 -380 -492 -476 -535 -401 -1159 -606 -1990
-655 -842 -49 -1614 133 -2249 530 -570 357 -1026 889 -1376 1606 -329 673
-524 1381 -644 2335 -140 1111 -152 2674 -31 3885 109 1088 312 1891 659 2610
370 766 868 1337 1510 1730 981 601 2240 710 3274 286 468 -193 870 -465 1286
-871 383 -374 653 -735 951 -1275 329 -594 685 -1483 946 -2357 l44 -148 312
0 313 0 -5 43 c-3 23 -82 1277 -175 2787 -94 1510 -173 2760 -176 2778 l-5 32
-321 -2 -321 -3 -386 -697 c-212 -384 -389 -698 -394 -698 -4 0 -62 42 -130
94 -524 400 -1050 723 -1492 916 -483 210 -1017 339 -1570 380 -128 9 -580 11
-700 3z"/>
<path d="M107670 24029 c-877 -43 -1623 -78 -1657 -78 l-63 -1 0 -359 0 -359
433 -4 c474 -5 529 -10 717 -70 370 -118 570 -355 657 -778 16 -80 17 -405 21
-5540 2 -3849 0 -5486 -8 -5562 -38 -376 -200 -596 -508 -687 -159 -47 -219
-53 -629 -58 l-393 -5 0 -359 0 -359 2365 0 2365 0 0 360 0 360 -437 0 c-467
0 -564 6 -703 47 -313 90 -449 291 -480 710 -8 104 -10 713 -7 2038 4 2026 2
1945 53 2225 150 829 692 1665 1328 2049 281 170 605 282 926 321 135 16 414
14 543 -4 398 -57 737 -229 1016 -516 344 -354 530 -789 608 -1423 15 -118 17
-379 20 -2392 3 -1512 0 -2294 -6 -2363 -22 -212 -73 -333 -191 -453 -113
-115 -252 -175 -495 -215 -78 -13 -193 -18 -512 -21 l-413 -5 0 -359 0 -359
2420 0 2420 0 0 359 0 360 -497 4 c-537 4 -540 5 -715 63 -180 60 -321 200
-377 374 -48 150 -45 -2 -51 2600 -7 2674 -2 2498 -70 2906 -71 425 -187 784
-373 1149 -229 449 -494 771 -797 967 -359 233 -802 382 -1274 427 -158 16
-527 13 -690 -4 -1030 -109 -1941 -658 -2761 -1665 l-110 -134 -3 3447 -2
3447 -38 -1 c-20 -1 -755 -37 -1632 -80z"/>
<path d="M60380 23591 l0 -360 803 -4 c863 -4 848 -3 1017 -58 223 -73 363
-215 427 -434 17 -57 18 -350 21 -5840 2 -5206 1 -5787 -13 -5851 -24 -107
-73 -201 -148 -280 -102 -108 -207 -162 -402 -207 -87 -20 -121 -21 -897 -24
l-808 -4 0 -359 0 -360 3280 0 3280 0 0 360 0 360 -744 0 c-605 0 -767 3 -859
15 -286 38 -487 140 -569 292 -15 27 -37 82 -50 123 l-23 75 -3 2863 -2 2862
657 0 c362 0 723 -5 803 -10 629 -44 1134 -201 1565 -484 467 -308 734 -674
893 -1226 115 -395 175 -735 257 -1440 167 -1438 303 -2222 451 -2592 315
-793 916 -1254 1728 -1329 244 -22 578 -1 806 52 291 67 576 208 799 394 513
427 840 1174 971 2210 21 169 50 484 50 548 l0 37 -325 0 -325 0 0 -29 c0 -74
-34 -435 -56 -600 -33 -246 -76 -446 -134 -621 -55 -168 -94 -249 -181 -380
-103 -154 -222 -263 -340 -311 -78 -32 -210 -32 -301 -1 -192 67 -382 279
-537 602 -169 354 -295 753 -471 1490 -259 1090 -454 1737 -642 2139 -181 388
-477 750 -820 1002 -343 253 -871 472 -1743 723 -104 30 -185 55 -180 56 6 0
123 13 260 30 1133 134 1931 328 2480 602 667 334 1156 802 1457 1393 161 318
251 608 305 990 25 182 25 719 0 910 -53 394 -142 695 -302 1020 -244 496
-644 939 -1148 1272 -316 208 -727 392 -1134 507 -388 110 -746 170 -1293 218
-99 8 -1160 12 -3997 15 l-3863 4 0 -360z m6600 -371 c698 -25 1151 -77 1489
-172 472 -131 869 -477 1139 -988 171 -325 281 -766 322 -1289 13 -175 13
-654 -1 -818 -73 -887 -385 -1503 -954 -1880 -417 -277 -956 -464 -1606 -557
-396 -57 -429 -59 -1596 -63 l-1083 -4 0 2586 c0 2298 2 2594 16 2663 40 200
165 352 340 412 167 58 481 99 874 113 199 8 815 6 1060 -3z"/>
<path d="M27610 19024 c-19 -2 -84 -9 -145 -15 -602 -60 -1187 -270 -1700
-612 -538 -358 -1029 -889 -1360 -1472 -360 -633 -563 -1341 -637 -2220 -19
-231 -16 -869 5 -1085 69 -689 213 -1211 482 -1745 216 -429 473 -782 825
-1135 844 -844 1902 -1245 3135 -1190 987 45 1800 362 2522 984 132 115 399
386 512 521 128 154 298 384 414 560 152 232 381 636 367 648 -3 2 -142 62
-310 134 l-304 130 -88 -153 c-680 -1195 -1531 -1839 -2588 -1960 -185 -21
-608 -15 -770 10 -493 78 -919 262 -1280 553 -119 95 -288 261 -382 373 -436
520 -680 1350 -748 2544 -5 98 -10 214 -10 257 l0 79 3206 0 3207 0 -7 178
c-47 1223 -256 2032 -728 2819 -512 853 -1294 1445 -2218 1678 -355 90 -581
117 -1020 120 -190 2 -361 1 -380 -1z m558 -575 c444 -48 834 -239 1186 -579
465 -451 726 -1001 786 -1658 16 -175 8 -524 -15 -652 -55 -302 -168 -481
-366 -579 -154 -76 4 -71 -2216 -71 l-1993 0 0 93 c0 50 5 166 10 257 64 1045
304 1804 746 2356 171 215 412 431 625 560 363 222 808 320 1237 273z"/>
<path d="M37395 19024 c-16 -2 -79 -9 -140 -15 -856 -85 -1640 -457 -2284
-1084 -833 -811 -1275 -1784 -1408 -3105 -26 -255 -26 -1014 0 -1250 104 -954
387 -1701 899 -2373 555 -728 1310 -1256 2132 -1492 795 -228 1782 -210 2557
46 1079 356 1942 1147 2608 2388 34 63 58 118 54 122 -5 3 -144 65 -310 137
l-302 130 -88 -156 c-124 -220 -338 -539 -489 -727 -150 -187 -422 -463 -579
-589 -469 -373 -949 -576 -1521 -642 -192 -22 -603 -15 -790 14 -411 64 -777
207 -1099 430 -188 130 -433 355 -568 522 -381 472 -617 1221 -701 2230 -19
221 -37 600 -30 612 3 4 1445 8 3205 8 l3199 0 0 133 c0 369 -58 933 -135
1322 -82 411 -185 728 -359 1105 -509 1099 -1377 1846 -2461 2119 -345 87
-571 113 -1010 116 -192 2 -363 1 -380 -1z m553 -575 c228 -24 428 -82 632
-180 503 -243 953 -746 1175 -1313 219 -560 246 -1336 59 -1709 -26 -52 -60
-95 -118 -153 -92 -91 -163 -132 -290 -164 -78 -20 -110 -20 -2078 -20 l-1999
0 6 128 c26 557 74 939 165 1308 154 625 388 1073 759 1456 207 214 378 341
616 458 202 100 420 165 630 188 114 13 329 14 443 1z"/>
<path d="M78890 19024 c-19 -2 -98 -9 -175 -15 -830 -64 -1575 -311 -2147
-712 -619 -434 -995 -935 -1098 -1464 -61 -312 -26 -632 95 -873 108 -214 303
-402 519 -500 273 -124 679 -124 943 0 113 53 192 111 283 207 111 117 187
257 225 414 23 93 31 300 15 385 -27 144 -103 314 -216 480 -177 260 -214 320
-244 391 -42 100 -40 186 4 278 38 78 181 220 297 297 359 236 795 367 1336
400 609 36 1152 -108 1547 -411 369 -282 584 -606 678 -1018 21 -96 22 -115
25 -889 l4 -791 -63 -7 c-1419 -157 -2744 -489 -3728 -933 -749 -339 -1303
-724 -1672 -1163 -276 -327 -451 -709 -515 -1120 -21 -141 -24 -478 -4 -620
57 -412 237 -774 535 -1074 463 -467 1106 -699 2035 -736 833 -32 1540 111
2078 420 369 213 704 483 1169 943 122 120 224 215 227 210 3 -5 24 -56 47
-113 326 -819 732 -1252 1315 -1403 358 -93 785 -79 1126 38 213 73 461 212
654 365 137 110 277 241 271 256 -3 8 -80 131 -172 273 l-166 260 -77 -54
c-222 -155 -499 -255 -705 -255 -327 1 -592 256 -695 670 -58 236 -54 47 -61
3015 -6 2695 -7 2721 -27 2830 -74 394 -216 696 -471 1003 -427 515 -1041 831
-1867 961 -282 44 -414 53 -860 56 -236 2 -446 1 -465 -1z m2090 -5191 c0
-412 -4 -787 -10 -848 -60 -663 -274 -1198 -667 -1672 -97 -117 -324 -341
-443 -437 -301 -241 -663 -422 -1026 -511 -247 -61 -596 -89 -804 -66 -423 47
-758 244 -980 573 -176 261 -260 581 -260 987 0 528 139 954 426 1308 455 559
1479 998 2984 1278 185 35 725 122 763 124 16 1 17 -40 17 -736z"/>
<path d="M101355 19015 c-912 -94 -1698 -449 -2420 -1096 -795 -711 -1264
-1644 -1429 -2839 -42 -305 -57 -516 -63 -890 -7 -464 12 -754 73 -1130 177
-1085 689 -1992 1489 -2635 505 -406 1068 -665 1725 -794 560 -110 1220 -114
1730 -11 290 58 497 128 756 255 281 138 515 306 739 530 363 362 652 842 864
1433 56 155 144 443 137 449 -5 5 -618 184 -620 181 -1 -2 -26 -64 -55 -138
-64 -163 -214 -475 -301 -625 -77 -136 -216 -342 -306 -455 -90 -113 -339
-361 -439 -437 -331 -250 -672 -386 -1084 -434 -134 -15 -490 -6 -626 16 -525
84 -957 312 -1341 706 -558 574 -853 1331 -960 2459 -21 225 -30 907 -15 1165
63 1100 320 1979 785 2685 265 402 570 653 979 804 412 153 978 185 1407 79
249 -61 466 -181 638 -354 89 -88 144 -175 174 -272 39 -128 9 -215 -133 -392
-109 -135 -160 -214 -219 -337 -88 -185 -123 -382 -101 -575 15 -141 33 -208
87 -322 54 -116 121 -206 221 -302 132 -125 281 -209 449 -251 127 -32 391
-31 509 1 101 27 225 86 320 152 87 60 233 208 294 298 100 147 174 346 202
539 18 126 6 441 -21 567 -83 390 -285 740 -620 1075 -497 497 -1081 778
-1834 881 -200 28 -775 36 -991 14z"/>
<path d="M44630 18860 c-778 -49 -1434 -89 -1457 -89 l-43 -1 0 -310 0 -310
238 0 c390 -1 589 -25 773 -94 147 -55 233 -110 345 -221 151 -149 221 -283
276 -526 l23 -104 0 -3070 0 -3070 -27 -67 c-68 -171 -218 -315 -396 -382
-198 -74 -302 -86 -769 -86 l-373 0 0 -360 0 -360 2370 0 2370 0 0 360 0 360
-375 0 c-207 0 -419 5 -472 11 -222 25 -402 93 -512 195 -104 96 -162 206
-204 389 -21 89 -21 105 -25 1915 -3 1855 -1 2018 34 2295 97 759 389 1390
864 1865 373 373 785 582 1295 656 166 25 497 25 655 0 450 -69 770 -229 1050
-523 368 -386 539 -849 612 -1653 10 -114 13 -608 13 -2320 l0 -2175 -22 -88
c-65 -252 -208 -404 -458 -485 -193 -63 -378 -82 -792 -82 l-303 0 0 -360 0
-360 2360 0 2360 0 0 360 0 360 -375 0 c-207 0 -419 5 -472 11 -234 26 -413
97 -524 208 -76 77 -110 134 -150 253 -62 183 -59 65 -59 2573 0 2551 -1 2575
-66 2953 -115 676 -419 1305 -824 1712 -379 379 -846 588 -1490 666 -181 22
-653 25 -840 6 -1152 -121 -2049 -696 -2767 -1770 l-101 -152 -6 62 c-4 35
-18 185 -32 333 -46 491 -113 971 -192 1370 l-37 190 -30 1 c-17 1 -667 -38
-1445 -86z"/>
<path d="M87040 18860 c-778 -49 -1434 -89 -1457 -89 l-43 -1 0 -309 0 -308
323 -6 c265 -4 343 -9 441 -26 449 -79 726 -313 841 -708 58 -197 55 -19 55
-3288 0 -3318 5 -3059 -62 -3193 -63 -127 -218 -260 -364 -315 -200 -75 -303
-87 -771 -87 l-373 0 0 -360 0 -360 2370 0 2370 0 0 360 0 360 -379 0 c-415 0
-539 10 -695 55 -126 37 -215 85 -296 162 -116 108 -184 272 -209 497 -14 126
-15 3601 -1 3806 62 908 354 1612 890 2150 377 378 809 593 1330 662 144 19
480 16 625 -6 402 -60 716 -206 976 -454 407 -387 592 -842 676 -1662 17 -163
18 -331 18 -2365 0 -2362 3 -2234 -52 -2375 -76 -194 -213 -319 -428 -388
-193 -63 -378 -82 -792 -82 l-303 0 0 -360 0 -360 2360 0 2360 0 0 360 0 360
-375 0 c-402 0 -513 8 -664 46 -255 64 -410 201 -485 429 -53 165 -50 -17 -56
2640 -7 2661 -4 2520 -61 2860 -117 693 -420 1326 -832 1737 -378 379 -844
586 -1487 664 -181 22 -653 25 -840 6 -1152 -121 -2053 -698 -2766 -1770
l-102 -153 -6 63 c-4 35 -13 140 -22 233 -48 538 -125 1096 -212 1525 l-27
135 -30 1 c-16 1 -667 -38 -1445 -86z"/>
<path d="M16350 18849 c-833 -43 -1539 -78 -1567 -78 l-53 -1 0 -340 0 -340
420 0 c451 0 562 -7 710 -46 410 -106 638 -400 705 -907 13 -104 15 -469 15
-3101 0 -2937 0 -2985 -20 -3047 -35 -115 -114 -216 -234 -300 -81 -57 -186
-100 -322 -130 -94 -21 -125 -23 -656 -26 l-558 -4 0 -360 0 -359 2780 0 2780
0 0 359 0 360 -707 4 c-744 4 -764 5 -951 52 -124 32 -226 83 -303 153 -76 69
-120 136 -156 239 l-28 78 0 1195 c0 1184 0 1197 23 1380 84 679 249 1368 532
2220 190 573 386 969 665 1346 311 418 699 749 1014 864 106 39 249 64 318 55
94 -12 147 -65 140 -141 -4 -44 -26 -90 -130 -285 -118 -221 -157 -373 -157
-610 0 -227 32 -384 110 -544 94 -193 225 -327 405 -415 115 -55 188 -75 333
-90 181 -19 357 9 510 81 326 152 536 465 597 889 20 141 20 456 0 600 -52
372 -186 652 -430 896 -250 251 -546 384 -939 423 -376 38 -761 -24 -1102
-176 -581 -259 -1058 -802 -1500 -1708 -219 -447 -438 -1024 -600 -1573 l-39
-133 -3 1800 -2 1801 -43 -1 c-23 -1 -724 -37 -1557 -80z"/>
<path d="M39620 7103 c-8 -3 -76 -34 -150 -68 -237 -110 -436 -162 -702 -184
-132 -11 -178 -28 -178 -65 0 -46 20 -51 224 -56 210 -6 236 -13 258 -64 11
-25 13 -447 13 -2312 0 -2013 -2 -2283 -15 -2299 -33 -39 -78 -49 -263 -53
-173 -4 -178 -5 -193 -27 -17 -27 -7 -57 25 -74 12 -7 161 -7 427 0 296 7 499
7 734 -2 298 -11 329 -10 358 5 40 21 45 68 10 87 -13 7 -102 16 -216 21 -106
4 -202 13 -213 18 -46 25 -44 -84 -49 2465 -5 2281 -6 2415 -24 2505 -19 102
-23 110 -46 103z"/>
<path d="M72288 7051 c-279 -129 -451 -176 -739 -200 -156 -13 -199 -36 -169
-91 14 -27 28 -29 235 -32 206 -3 226 -10 244 -75 17 -59 15 -4550 -2 -4583
-25 -51 -75 -64 -267 -68 -97 -2 -181 -9 -187 -14 -22 -17 -16 -66 10 -82 20
-14 74 -14 432 -5 300 7 498 7 736 -2 367 -13 381 -11 387 48 5 49 -18 55
-229 64 -102 5 -198 13 -212 18 -55 21 -52 -128 -54 2411 -1 1531 -6 2388 -12
2450 -13 120 -31 220 -40 220 -3 0 -63 -27 -133 -59z"/>
<path d="M75496 7044 c-246 -116 -421 -164 -690 -190 -166 -16 -200 -26 -204
-66 -6 -50 22 -58 213 -59 187 0 226 -8 259 -52 l21 -28 0 -2282 c0 -1881 -2
-2286 -13 -2305 -25 -44 -73 -55 -270 -61 -147 -5 -185 -9 -192 -21 -12 -18
-12 -41 -2 -56 21 -32 48 -33 463 -23 301 7 499 7 725 -2 172 -6 323 -9 337
-5 56 14 78 74 35 97 -13 7 -102 16 -218 21 -211 9 -236 16 -251 69 -4 13 -7
1068 -8 2344 -1 1478 -5 2360 -11 2430 -14 147 -34 255 -48 255 -4 -1 -70 -30
-146 -66z"/>
<path d="M47910 7044 c-145 -65 -321 -126 -435 -149 -66 -14 -112 -16 -255
-10 -164 6 -178 5 -200 -13 -29 -24 -32 -78 -5 -98 23 -17 128 -18 261 -3 86
9 98 8 127 -8 18 -11 42 -36 53 -57 55 -98 64 -254 64 -1114 l0 -744 -38 49
c-110 138 -279 238 -472 280 -114 24 -376 24 -509 -1 -279 -51 -487 -161 -692
-365 -271 -272 -423 -613 -470 -1059 -15 -147 -6 -503 15 -632 65 -381 212
-681 451 -925 232 -236 490 -358 823 -386 315 -27 593 61 811 257 l51 46 0
-136 c0 -123 2 -138 20 -156 11 -11 27 -20 35 -20 9 0 65 25 126 56 224 112
377 144 690 144 213 0 242 6 247 52 5 45 -25 55 -186 62 -155 7 -234 20 -252
41 -25 30 -31 479 -37 2638 -5 2032 -7 2240 -22 2270 -24 49 -56 46 -201 -19z
m-907 -2009 c156 -33 327 -155 395 -282 39 -75 77 -203 98 -340 36 -229 28
-1599 -10 -1888 -23 -169 -83 -287 -197 -388 -141 -124 -279 -179 -454 -181
-123 -1 -169 10 -290 72 -85 44 -242 196 -294 285 -109 185 -201 521 -237 857
-20 194 -15 646 10 810 33 217 98 445 168 584 102 205 258 371 406 433 121 51
277 65 405 38z"/>
<path d="M61800 7020 c-38 -9 -60 -33 -60 -65 0 -48 22 -53 245 -64 334 -16
402 -48 495 -231 35 -69 366 -985 628 -1740 110 -316 271 -775 357 -1020 86
-245 257 -744 380 -1110 227 -678 261 -773 316 -883 50 -100 68 -113 108 -79
15 12 40 83 92 262 194 673 486 1564 869 2650 199 563 606 1683 650 1786 82
193 155 286 254 323 69 26 218 51 306 51 90 1 148 14 173 38 17 18 19 25 9 46
-19 43 -64 48 -324 35 -152 -7 -330 -9 -513 -4 -154 5 -372 9 -485 9 -186 1
-209 -1 -244 -19 -48 -24 -61 -44 -53 -77 11 -42 42 -48 265 -48 154 0 223 -4
266 -15 108 -28 153 -81 141 -164 -11 -74 -125 -442 -290 -936 -306 -914 -907
-2637 -917 -2627 -4 4 -95 268 -203 587 -108 319 -298 870 -422 1225 -422
1209 -540 1555 -578 1692 -37 133 -38 137 -21 163 33 51 69 57 356 66 409 14
491 29 498 91 2 20 -4 31 -25 45 -26 17 -55 18 -488 13 -655 -7 -1073 -6
-1435 2 -173 4 -331 3 -350 -2z"/>
<path d="M27003 6995 c-26 -18 -31 -61 -10 -88 9 -14 38 -20 132 -27 349 -30
383 -39 407 -107 10 -31 13 -484 16 -2283 2 -1235 0 -2269 -3 -2299 -12 -99
-65 -123 -322 -146 -87 -7 -173 -19 -191 -25 -58 -21 -67 -75 -16 -98 35 -16
1767 -17 1813 -1 20 7 33 20 37 35 13 51 -26 67 -206 84 -214 21 -314 51 -338
102 -34 72 -35 115 -39 1286 l-4 1162 1106 0 1105 0 0 -1177 c0 -718 -4 -1201
-10 -1238 -5 -32 -18 -67 -27 -77 -24 -23 -111 -45 -219 -53 -124 -9 -260 -32
-295 -50 -41 -21 -38 -50 8 -74 33 -17 1778 -16 1813 2 27 14 40 68 21 91 -8
9 -58 15 -164 19 -169 6 -279 27 -329 61 -67 44 -63 -118 -63 2381 0 2497 -5
2316 63 2362 38 25 57 28 268 42 182 12 234 28 234 73 0 59 23 58 -949 58
l-880 0 -28 -24 c-24 -21 -26 -27 -18 -52 16 -44 47 -54 180 -54 143 0 242
-13 300 -39 37 -16 45 -26 59 -67 32 -97 35 -202 36 -1101 l0 -903 -1106 0
-1105 0 4 958 c3 681 7 971 15 1007 25 107 59 123 295 135 235 13 282 30 258
93 -19 48 -48 51 -335 37 -253 -13 -1052 -9 -1371 6 -102 5 -123 3 -142 -11z"/>
<path d="M42547 6850 c-82 -21 -153 -74 -187 -141 -11 -20 -24 -67 -31 -104
-40 -233 100 -405 330 -405 142 0 233 45 285 141 26 47 30 66 34 160 7 180
-40 277 -161 329 -59 26 -204 36 -270 20z"/>
<path d="M68761 6850 c-49 -11 -116 -47 -148 -82 -45 -48 -67 -116 -71 -225
-4 -92 -2 -106 21 -156 30 -65 90 -127 155 -159 41 -20 62 -23 162 -23 125 0
170 14 233 74 91 84 114 305 45 439 -27 53 -90 106 -146 122 -51 15 -198 21
-251 10z"/>
<path d="M42885 5168 c-209 -123 -447 -192 -760 -222 -82 -8 -158 -17 -167
-21 -26 -10 -32 -43 -13 -65 15 -17 37 -19 217 -22 244 -4 233 3 243 -150 3
-57 5 -661 3 -1343 -2 -941 -6 -1247 -15 -1267 -17 -37 -62 -48 -247 -57 -157
-9 -187 -16 -207 -52 -32 -60 39 -103 123 -74 36 12 123 15 543 14 316 0 559
-5 659 -13 213 -17 266 -6 266 54 0 47 -20 54 -174 61 -261 13 -313 34 -327
130 -4 30 -8 675 -9 1434 0 829 -4 1410 -10 1455 -11 83 -37 180 -48 180 -4 0
-38 -19 -77 -42z"/>
<path d="M69125 5184 c-204 -128 -470 -209 -782 -237 -82 -8 -159 -19 -171
-26 -24 -13 -30 -55 -9 -68 6 -4 103 -10 214 -13 130 -3 206 -9 213 -16 31
-31 33 -99 37 -1239 4 -1140 -2 -1490 -27 -1520 -20 -24 -82 -36 -239 -44
-139 -8 -185 -18 -203 -45 -13 -19 -9 -63 8 -77 19 -15 103 -16 132 0 29 15
976 13 1182 -3 85 -6 175 -9 199 -5 64 9 89 51 57 94 -12 17 -33 20 -170 26
-169 8 -269 28 -301 60 -17 17 -21 38 -27 172 -3 83 -7 739 -8 1457 -1 1337
-2 1389 -39 1483 -13 33 -16 33 -66 1z"/>
<path d="M35080 5190 c-265 -32 -499 -127 -707 -286 -160 -123 -356 -360 -447
-543 -181 -361 -238 -827 -155 -1258 109 -564 522 -1046 1039 -1211 175 -56
253 -67 485 -66 233 0 329 14 502 75 492 174 878 652 983 1219 27 144 38 448
21 599 -33 300 -126 567 -276 791 -245 365 -584 593 -987 666 -103 18 -357 26
-458 14z m413 -130 c204 -52 327 -157 433 -369 87 -175 154 -421 190 -692 22
-169 30 -627 14 -812 -35 -421 -136 -760 -297 -1007 -79 -120 -157 -181 -290
-227 -68 -23 -94 -27 -203 -27 -217 0 -369 57 -515 195 -166 158 -273 359
-344 649 -112 457 -104 1116 20 1555 65 235 157 408 285 544 113 119 230 184
378 211 74 13 239 4 329 -20z"/>
<path d="M51330 5193 c-450 -33 -803 -271 -920 -621 -25 -78 -40 -226 -30
-308 15 -126 100 -248 209 -301 52 -26 65 -28 176 -28 111 0 124 2 170 27 28
14 60 37 72 50 62 66 91 224 59 328 -33 111 -134 200 -226 200 -57 0 -80 22
-80 80 0 157 112 313 286 400 98 48 175 64 314 64 110 0 134 -3 204 -27 93
-33 147 -68 210 -138 133 -148 169 -335 170 -888 l1 -354 -155 -33 c-207 -43
-423 -99 -545 -141 -204 -71 -417 -199 -566 -340 -136 -130 -219 -259 -268
-416 -40 -131 -45 -330 -11 -459 40 -148 181 -313 331 -387 135 -66 188 -76
384 -75 200 1 275 17 420 89 154 77 286 203 379 362 l43 72 15 -94 c45 -273
220 -415 511 -415 220 0 525 113 681 251 88 79 115 189 46 189 -23 0 -49 -18
-119 -84 -98 -92 -152 -119 -268 -138 -85 -13 -137 2 -188 56 -49 51 -73 118
-85 241 -5 50 -10 518 -10 1040 0 948 -5 1110 -36 1265 -52 255 -262 430 -599
500 -155 33 -397 46 -575 33z m617 -2110 c-5 -542 -4 -536 -91 -667 -124 -187
-294 -279 -484 -263 -284 24 -467 295 -424 630 27 213 119 365 298 493 76 54
258 142 381 183 81 28 294 88 316 90 5 1 7 -209 4 -466z"/>
<path d="M78955 5189 c-374 -36 -680 -221 -824 -498 -48 -94 -68 -159 -82
-273 -20 -166 20 -298 120 -391 83 -78 124 -92 266 -92 114 0 123 1 175 30 71
39 113 100 130 190 22 117 1 213 -67 302 -31 40 -115 83 -163 83 -19 0 -46 7
-59 16 -22 16 -23 22 -19 88 17 264 318 469 649 442 287 -23 452 -190 504
-508 23 -146 36 -400 33 -657 l-3 -244 -155 -33 c-206 -43 -422 -99 -545 -141
-368 -128 -691 -397 -804 -671 -46 -110 -65 -212 -64 -342 0 -205 47 -324 183
-461 69 -70 101 -94 170 -128 135 -65 189 -76 380 -76 139 1 178 4 249 24 249
67 437 218 576 464 l22 39 7 -59 c37 -314 231 -468 566 -450 58 3 140 15 183
26 249 65 494 218 528 330 15 51 5 74 -33 79 -20 2 -43 -13 -104 -70 -90 -84
-129 -109 -199 -131 -180 -56 -283 -10 -336 150 l-23 68 -6 1095 c-6 960 -9
1107 -23 1195 -21 125 -38 177 -83 251 -122 204 -367 321 -739 353 -137 12
-280 12 -410 0z m665 -2041 c0 -389 -8 -544 -32 -618 -18 -58 -97 -171 -163
-235 -127 -123 -299 -172 -458 -130 -86 22 -135 51 -203 119 -112 112 -160
256 -151 446 21 397 278 627 884 790 59 15 111 29 116 29 4 1 7 -180 7 -401z"/>
<path d="M83686 5190 c-533 -61 -918 -393 -1015 -875 -53 -262 -32 -531 59
-748 48 -116 142 -251 248 -355 52 -51 93 -95 91 -96 -2 -2 -29 -11 -59 -21
-169 -55 -325 -149 -428 -260 -119 -127 -171 -266 -172 -450 0 -255 127 -440
400 -579 l107 -54 -86 -22 c-133 -35 -278 -88 -366 -133 -107 -56 -236 -182
-288 -284 -63 -121 -80 -204 -80 -378 0 -175 17 -255 82 -381 96 -189 266
-332 506 -427 213 -84 396 -112 730 -111 278 1 435 18 650 74 402 104 779 345
993 635 100 135 163 269 210 444 23 88 25 113 26 301 0 239 -12 302 -90 457
-98 196 -284 341 -516 402 -235 61 -503 53 -1040 -33 -465 -74 -669 -52 -793
86 -90 100 -112 275 -50 401 60 122 207 231 327 244 46 5 79 -2 209 -40 272
-81 319 -91 469 -91 207 -1 361 34 535 121 307 153 535 436 609 756 44 188 41
353 -10 672 -32 201 -33 257 -7 315 44 98 147 180 224 180 83 -1 117 -54 92
-149 -35 -136 -37 -148 -25 -188 17 -58 66 -109 137 -144 59 -29 69 -31 152
-27 98 4 145 21 195 72 56 55 72 107 76 241 3 105 1 127 -18 179 -66 175 -272
253 -528 200 -145 -30 -309 -140 -407 -275 l-37 -49 -46 40 c-258 224 -371
289 -572 330 -120 25 -367 34 -494 20z m287 -105 c32 -8 76 -24 99 -36 62 -31
155 -125 199 -199 118 -201 177 -584 151 -988 -19 -291 -54 -451 -134 -605
-99 -190 -277 -285 -480 -257 -174 25 -294 111 -391 280 -40 70 -93 242 -119
385 -20 116 -23 162 -23 430 0 325 9 412 62 580 70 224 195 364 364 409 71 19
201 20 272 1z m591 -3284 c118 -33 202 -78 272 -146 106 -105 153 -237 154
-433 0 -256 -90 -464 -284 -657 -228 -225 -514 -351 -881 -386 -553 -52 -988
189 -1095 607 -55 212 -24 481 76 658 37 67 137 172 206 216 53 35 63 37 160
44 129 8 289 29 533 67 326 52 397 58 595 55 152 -3 199 -8 264 -25z"/>
<path d="M88635 5189 c-465 -57 -860 -352 -1099 -819 -145 -285 -205 -581
-193 -959 9 -316 62 -522 197 -779 74 -141 152 -244 285 -377 176 -177 350
-287 568 -360 140 -47 255 -66 434 -72 248 -9 442 26 620 112 216 105 385 279
550 567 87 151 103 240 46 254 -48 12 -75 -7 -122 -86 -170 -289 -321 -465
-451 -528 -116 -56 -206 -75 -375 -76 -217 -1 -374 38 -530 132 -132 80 -290
261 -373 428 -67 134 -131 361 -164 579 -18 122 -18 615 0 751 l14 101 181 7
c100 5 524 12 942 17 418 4 776 11 795 14 19 3 50 8 69 11 l34 5 -6 77 c-9
114 -43 234 -98 351 -58 123 -121 211 -221 307 -179 173 -378 276 -625 324
-126 24 -358 34 -478 19z m360 -130 c88 -27 143 -59 205 -119 134 -131 208
-336 235 -652 l7 -78 -686 0 c-650 0 -686 1 -686 18 0 38 62 267 95 354 114
294 283 453 533 498 73 14 219 3 297 -21z"/>
<path d="M54352 5108 c-27 -14 -38 -49 -23 -77 15 -28 62 -38 231 -49 80 -5
157 -15 172 -22 45 -21 91 -137 419 -1037 205 -564 570 -1545 744 -1998 l76
-200 -21 -77 c-33 -123 -145 -462 -219 -666 -130 -355 -200 -510 -255 -561
-22 -20 -30 -23 -50 -13 -13 5 -36 31 -52 56 -85 135 -98 150 -168 186 -63 32
-75 35 -160 34 -76 0 -100 -4 -146 -25 -74 -35 -110 -67 -145 -131 -25 -45
-30 -67 -33 -143 -5 -112 18 -180 84 -254 146 -163 431 -169 637 -13 119 90
248 300 345 562 278 749 646 1873 1106 3372 197 641 260 827 298 881 31 43 74
56 226 68 75 6 153 16 172 23 31 10 35 15 35 46 0 51 -31 59 -148 36 -83 -17
-129 -18 -408 -13 -173 3 -350 11 -394 18 -96 15 -138 2 -143 -42 -5 -45 20
-59 106 -60 161 -1 292 -16 314 -35 31 -29 20 -105 -56 -369 -132 -455 -615
-1995 -626 -1995 -3 0 -12 17 -19 38 -7 20 -55 143 -106 272 -110 278 -183
480 -380 1045 -81 231 -185 525 -231 653 -47 128 -87 252 -90 276 -6 39 -4 46
19 61 29 19 102 30 289 44 161 12 213 37 180 87 -21 32 -49 34 -339 24 -631
-22 -730 -23 -944 -6 -236 18 -265 19 -297 4z"/>
<path d="M17023 4067 c-1475 -188 -2681 -343 -2679 -344 5 -6 5358 -683 5397
-683 30 0 5169 648 5369 677 33 5 -689 100 -2655 349 -1485 189 -2711 343
-2725 343 -14 -1 -1232 -154 -2707 -342z m3479 -248 c406 -51 736 -94 734 -96
-2 -2 -339 -46 -749 -98 l-746 -95 -713 90 c-392 50 -729 94 -748 98 -30 7
-21 10 70 22 58 7 395 50 750 95 355 45 650 80 655 79 6 -2 342 -45 747 -95z"/>
<path d="M94590 4065 c-1959 -249 -2673 -343 -2640 -348 197 -29 5339 -677
5369 -677 39 0 5392 677 5397 683 4 4 -5398 688 -5421 686 -11 -1 -1228 -155
-2705 -344z m4200 -337 c22 -4 21 -5 -10 -11 -19 -4 -356 -48 -748 -97 l-713
-90 -746 95 c-410 52 -747 96 -749 98 -2 2 333 46 744 98 l747 94 725 -91
c399 -50 736 -94 750 -96z"/>
</g>
</svg>
