<svg xmlns="http://www.w3.org/2000/svg" contentScriptType="text/ecmascript" version="1.2" viewBox="0 0 30 30"><path d="M9.063 0C4.332 0 .483 3.848.483 8.578v11.875c0 4.73 3.848 8.578 8.579 8.578h11.874c4.731 0 8.579-3.847 8.579-8.578V8.578c0-4.73-3.848-8.578-8.578-8.578Zm0 1.32h11.874a7.249 7.249 0 0 1 7.258 7.258v11.875a7.249 7.249 0 0 1-7.258 7.258H9.063a7.249 7.249 0 0 1-7.257-7.258V8.578A7.249 7.249 0 0 1 9.062 1.32Zm13.855 3.957a1.332 1.332 0 0 0-.934.387 1.272 1.272 0 0 0-.285.43 1.305 1.305 0 0 0 0 1.008 1.292 1.292 0 0 0 .715.714 1.305 1.305 0 0 0 1.008 0c.164-.066.305-.16.43-.285.125-.125.218-.265.285-.43a1.305 1.305 0 0 0 0-1.007 1.272 1.272 0 0 0-.285-.43 1.332 1.332 0 0 0-.934-.387ZM15 7.257c-4 0-7.258 3.259-7.258 7.259S11 21.773 15 21.773s7.258-3.257 7.258-7.257c0-4-3.258-7.258-7.258-7.258Zm0 1.321a5.927 5.927 0 0 1 5.938 5.938A5.925 5.925 0 0 1 15 20.453a5.925 5.925 0 0 1-5.938-5.937A5.927 5.927 0 0 1 15 8.578Zm0 0" style="stroke:none;fill-rule:nonzero;fill:#d9d9d9;fill-opacity:1"/></svg>