<svg xmlns="http://www.w3.org/2000/svg" version="1.0" viewBox="0 0 11706 5667"><g fill="#F7F5DA"><path d="m5077 7-18 8c-7 3-26 7-56 12-61 12-89 21-128 41-60 30-102 73-130 133-45 96-59 210-41 335 12 87 38 186 99 384 68 216 85 277 99 345 16 76 22 144 18 198-5 77-26 141-64 198-32 47-73 88-107 104-16 8-133 48-194 67-118 36-422 118-484 130-45 9-76 8-108-5-11-5-16-5-27-2-38 10-55 46-37 79 7 11 18 20 29 24 9 2 17 3 36 2 47-3 100-12 155-27 53-14 103-31 218-75a14402 14402 0 0 1 620-218c144-45 262-66 366-66a1828 1828 0 0 0 161-10c14-4 14-3 14-8v-5l-10-2c-11-2-32-3-59-1l-93 2c-143 2-175 5-259 27-42 11-165 40-170 40l-19-5 2-9c3-7 4-8 15-19 18-18 31-38 44-73 17-41 24-75 27-127v-125c-4-66-12-132-27-212-10-51-20-98-48-221-27-119-36-159-46-211-20-98-33-188-37-250a456 456 0 0 1 20-176c4-12 15-36 21-46 28-43 71-74 124-89 30-9 59-13 116-16 31-2 131-2 158 0 151 9 283 30 571 93l109 23c211 46 374 77 492 92a2919 2919 0 0 0 828-12c100-20 187-45 294-84 51-19 135-46 148-47 21-2 38 8 51 31 14 26 22 46 25 61a2826 2826 0 0 1 10 403c-2 63-2 92-1 101 2 18 2 17 5 17 4 0 3 3 13-31a2167 2167 0 0 0 43-364c1-73-5-135-20-192-7-28-13-43-24-59-16-24-37-40-65-47-12-3-33-4-47-2-23 3-181 42-282 69-73 20-108 28-161 39a1474 1474 0 0 1-413 24l-77-4c-167-7-301-29-618-100l-319-69c-101-21-156-30-270-45-142-18-149-19-190-30l-17-4h-254l-12 6z"/><path d="M3261 1216c-223 10-421 63-631 167-177 88-329 197-467 335-73 73-124 136-162 199-44 73-72 149-81 223a417 417 0 0 0 41 230c40 80 98 146 191 215 110 83 218 136 414 204a2887 2887 0 0 0 603 144 3918 3918 0 0 0 727 45c117-5 164-8 321-27 508-58 586-71 911-147 199-46 327-80 495-129 344-101 576-175 796-252 231-82 527-194 1013-384l230-89 567-223c146-58 209-82 296-112 210-73 407-122 553-138a1046 1046 0 0 1 217-2c59 7 116 25 161 52 17 11 21 17 17 27-4 9-49 53-93 91a2059 2059 0 0 1-277 196c-23 10-35 12-141 21l-76 8c-47 5-55 5-103 5-49 0-66 0-146-7a1546 1546 0 0 0-133-5l-1 6-1 5 11 4c9 4 10 4 42 7l87 10a1815 1815 0 0 0 290 13c12-1 14-1 25 5l6 2-4 9-7 11a4809 4809 0 0 1-458 220c-43 19-58 23-87 25-20 2-64 0-118-4l-65-3c-106-6-136-10-199-25l-113-32c-90-28-95-29-107-29-6 0-6 0-7 4-1 3-1 3 2 6 8 7 18 13 28 16l38 14c101 38 128 44 294 75 72 13 95 18 99 20l16 11c1 1-13 15-17 18a3894 3894 0 0 1-449 137c-133 31-253 49-366 56l-37 3c-11 0-14 1-21 4l-9 3v4c0 5 1 5 13 7a38822 38822 0 0 0 71-1c45-2 53-3 131-14 146-21 227-34 310-49l90-20 118-32c66-19 64-19 74-17l9 1v4l-4 11c-2 9-1 8-76 103a1903 1903 0 0 0-123 172c4 5 4 5 18-8 11-10 16-15 28-30 73-93 159-178 261-259 62-49 70-53 167-88 50-17 75-28 214-89 124-54 120-53 134-56l14-4-18 32c-43 75-58 101-70 128-26 51-44 109-44 139 0 8 1 14 2 14l7-10 12-20c4-5 16-28 27-50 24-47 30-57 47-81a1479 1479 0 0 1 183-207c58-51 107-84 175-120l102-55a13776 13776 0 0 0 295-169c9-5 11-5 17-5 8 0 10 1 13 7 9 17 13 97 8 150-4 34-9 63-18 101a718 718 0 0 1-160 313c-138 157-331 261-606 330a3551 3551 0 0 1-617 85 8011 8011 0 0 1-1260-59 274 274 0 0 0-70-3l-1 4-1 3 15 6a6647 6647 0 0 0 865 142c182 15 410 20 564 13a3261 3261 0 0 0 551-79 1347 1347 0 0 0 655-375c69-75 125-154 163-227 60-120 83-243 67-372a439 439 0 0 0-249-358c-65-31-137-49-234-57-20-2-87-2-112-1-98 5-216 25-401 69-140 32-193 48-388 119-251 90-506 186-1018 383a36801 36801 0 0 1-1185 434c-230 78-366 120-546 171a8753 8753 0 0 1-977 228c-266 43-543 76-702 84-53 3-71 3-146 4-157 1-273-5-454-23-259-27-387-46-543-80-155-35-272-72-377-120-89-40-160-83-217-131a348 348 0 0 1-113-152c-27-75-24-157 10-236 28-64 72-135 130-207a1573 1573 0 0 1 637-461c181-68 368-99 584-96 196 3 355 28 526 81a3842 3842 0 0 0 117 35l3-3 2-4c0-2-24-17-33-21l-122-49a1562 1562 0 0 0-658-117zM612 3244c-71 4-141 24-209 57a681 681 0 0 0-262 222c-55 77-93 161-116 251a911 911 0 0 0-1 418 730 730 0 0 0 224 371 639 639 0 0 0 453 148 416 416 0 0 0 272-126c26-27 47-54 71-89l11-18 5 15a5572 5572 0 0 1 67 225l32 1h31v-277l1-277 2-8c4-12 8-19 16-27 11-11 21-16 42-20 9-2 14-2 64-3h55v-67H777v67h75l84 2c22 5 36 10 46 20 8 7 12 14 16 24l2 8v87l-1 103a326 326 0 0 1-121 224c-53 40-115 60-199 65s-161-13-224-53c-57-36-103-89-138-160-33-68-52-139-64-234-14-111-16-267-4-388 11-109 32-190 66-261 37-77 87-134 151-173 98-61 224-71 328-29a469 469 0 0 1 223 215c33 59 69 148 95 235l4 15h63l-1-4a64892 64892 0 0 1-35-557v-3h-64l-39 70-39 70-13-9c-53-40-105-73-149-92a485 485 0 0 0-227-38zm10155 20-166 8h-6v72h43c48 1 53 1 72 7 37 12 57 36 66 78l2 554-1 556c-4 38-20 60-51 69-16 5-22 5-63 6h-39v72h473v-72h-44c-46 0-56-1-70-5-31-9-45-29-48-71l-1-203c1-203 1-195 6-223 15-83 69-166 132-205a236 236 0 0 1 147-32c40 6 74 23 102 52 34 35 53 79 61 142l2 240-1 236c-2 21-7 33-19 45-11 12-25 18-49 22l-52 2h-41v72h484v-72h-50c-53-1-54-1-71-7-18-6-32-20-38-37-5-15-4 0-5-260-1-267 0-250-7-291-7-42-19-78-37-114-23-45-50-78-80-97a295 295 0 0 0-196-42 410 410 0 0 0-277 166l-11 13v-689h-4l-163 8zm-4729 44v36h80c87 1 85 1 102 6 22 7 36 22 43 44l2 584-1 585c-3 10-8 20-15 28a70 70 0 0 1-41 20c-8 2-12 2-89 3h-81v72h656v-72h-74c-61 0-77 0-86-2-29-3-49-14-57-29-2-2-4-8-5-12l-2-8-1-286v-286h66l80 1c63 4 113 20 157 48 46 31 73 68 89 123 11 39 17 73 26 144 16 144 30 222 45 259 31 79 91 126 172 133 25 2 58 0 81-5 29-7 58-21 80-40 51-42 84-117 97-221l5-54v-4h-65v3a600 600 0 0 1-19 122c-5 17-9 25-18 38a81 81 0 0 1-34 31c-8 3-21 3-30 0-19-7-38-28-54-60-17-35-29-75-47-149-26-109-45-174-64-214-18-39-48-75-82-100a563 563 0 0 0-192-78l26-3c113-13 193-33 248-60 66-34 115-80 145-139 16-32 25-61 31-99 2-19 2-72 0-91a311 311 0 0 0-145-230c-32-20-73-39-114-50-38-11-74-17-129-22l-400-2h-386v36zm660 37c70 3 115 8 149 17 47 13 87 48 114 99 17 33 28 77 32 129v82c-7 88-39 150-96 188-41 27-95 46-160 55-40 6-43 6-160 7h-108v-258c0-230 0-260 2-267 4-20 16-35 34-41 16-6 48-10 87-11h106zm-3937 420-14 1c-61 6-119 27-170 61-54 36-103 89-136 147-36 64-57 135-64 222-2 24-2 87 0 109a470 470 0 0 0 131 288c84 84 190 125 314 119a397 397 0 0 0 303-150 712 712 0 0 0 78-121l-31-14-30-13-9 16c-68 119-153 184-259 196a266 266 0 0 1-243-94c-44-52-68-135-75-254l-1-26v-8h641v-18c-5-122-26-203-73-282a361 361 0 0 0-324-179h-38zm56 57c44 5 83 24 118 58 47 45 73 100 79 166 2 17 1 52-1 65-6 30-17 48-37 58-15 7 0 7-222 7h-199v-9l1-26c6-104 30-180 75-236 17-21 41-43 62-56 36-22 81-32 124-27zm923-57-14 1c-86 9-164 46-229 108a472 472 0 0 0-141 311c-2 26-2 101 0 125 11 95 39 170 90 237a416 416 0 0 0 469 145 463 463 0 0 0 266-251l-31-14-30-13-9 16a476 476 0 0 1-107 132 287 287 0 0 1-231 62 261 261 0 0 1-166-95c-38-47-62-122-70-223-2-22-4-60-3-61l320-1h320v-13c0-37-6-94-14-133-8-41-18-72-35-110a370 370 0 0 0-348-223h-38zm55 57c23 2 43 8 63 18 50 24 95 75 118 131 21 56 24 134 5 171-2 6-6 10-11 16-10 9-17 13-29 16-8 2-11 2-208 2h-200v-13c3-56 8-94 17-131 15-62 39-107 76-145a205 205 0 0 1 169-65zm4094-57-17 1c-83 6-158 31-215 71-62 44-100 94-110 147-6 31-3 63 10 87 10 21 30 40 51 50 28 12 68 12 95 0 11-5 19-11 28-21 11-11 19-25 23-41 2-9 3-30 1-39-3-14-10-31-22-48-17-26-21-32-24-39-4-10-4-18 0-27 4-8 18-22 30-30 36-24 80-37 134-40 61-4 115 11 154 41 37 28 59 61 68 102 2 9 2 11 3 89v79h-6c-142 16-275 49-373 94-75 34-130 72-167 116a227 227 0 0 0-52 174c6 41 24 77 53 107 47 47 111 70 204 74 83 3 154-11 208-42 37-21 70-48 117-94l22-21 5 11c33 82 73 125 131 140 36 10 79 8 113-3a236 236 0 0 0 93-63l-18-27-16-26-8 6c-22 15-50 25-70 25-33 0-60-26-70-67-6-24-5-5-6-301-1-270-1-273-3-283-7-40-21-70-47-101-43-51-104-83-187-96a1416 1416 0 0 0-132-5zm209 519-1 84a292 292 0 0 1-214 263c-24 6-59 8-80 6-42-5-76-24-98-57-18-26-26-58-26-99 0-53 14-95 43-131 45-56 148-99 298-127l76-13c2 0 2 4 2 74zm2038-518c-92 9-170 44-242 109a446 446 0 0 0-143 284 649 649 0 0 0 1 202c17 109 69 199 149 264 50 40 106 66 172 79 56 11 122 11 173 1a283 283 0 0 0 150-78 381 381 0 0 0 100-189l-62-18-6 14a609 609 0 0 1-61 108 213 213 0 0 1-152 87 232 232 0 0 1-197-72c-55-58-85-133-96-246-2-23-3-91-1-117 6-110 32-197 78-268 27-40 57-65 98-80 41-16 98-19 141-8 25 6 47 18 64 35 9 9 14 18 17 27 4 13 1 22-13 39-11 14-16 22-22 34a106 106 0 0 0-1 90c5 11 12 20 22 30 13 13 28 21 45 25 12 3 39 3 51 0a111 111 0 0 0 61-45c10-15 17-35 20-54 2-12 1-44-2-57-8-39-28-74-62-107-50-50-108-78-183-88-20-3-78-4-99-2zm-5673 15-146 9h-4v62h24c39 0 59 3 77 9 15 6 23 11 35 23 15 14 22 28 27 52l3 10v615l-3 6c-7 17-22 32-40 38-20 8-30 9-77 9h-37v72h474v-72h-37l-48-1c-22-3-40-9-51-20a69 69 0 0 1-20-39c-2-8-2-10-3-191 0-185 0-202 4-229 9-76 39-139 86-187a220 220 0 0 1 195-66c45 7 77 23 105 53 37 38 54 85 61 165 1 11 2 61 2 232v218l-3 8c-6 26-20 41-45 49-20 6-38 8-80 8h-30v72h472v-72h-37l-48-1c-23-3-41-10-52-21-8-8-11-13-15-25-6-19-6-7-6-258 0-255 0-257-7-295-11-67-41-130-82-171-38-38-85-59-149-67a366 366 0 0 0-361 176l-10 16v-6l-4-34c-4-49-11-97-19-137l-3-19h-3l-145 9zm4241 0-146 9h-4v62h32c27 1 35 1 44 3 45 8 73 31 84 71 6 19 6 2 6 329 0 331 1 305-6 319-7 13-22 26-37 31-20 8-30 9-77 9h-37v72h474v-72h-38c-41 0-54-1-69-5-13-4-22-9-30-17-12-10-18-27-21-49v-381c6-91 35-161 89-215a222 222 0 0 1 196-66c40 6 71 21 97 46 41 39 59 84 68 166 1 16 2 33 2 237 0 236 0 223-6 237-7 19-21 32-43 39-19 6-37 8-79 8h-30v72h472v-72h-37c-41 0-52-1-67-5-25-6-41-20-48-43-6-16-5 2-6-263-1-267 0-252-6-286-12-70-42-133-83-174-38-38-85-59-149-67a366 366 0 0 0-361 176l-10 16v-6l-3-23c-4-54-12-110-21-153l-3-13-3-1-144 9zm-7069 1-157 8h-5v68h42c45 0 56 1 71 5 41 10 64 40 71 90l1 310c0 294 0 299-2 305-3 12-11 22-23 30-9 6-19 10-33 13-9 2-12 2-65 3h-56v72h556v-72h-71c-74-1-76-1-95-6-12-3-22-8-30-15s-12-13-16-24l-2-7v-120c0-118 0-120 2-138 8-68 25-137 53-222 19-57 39-97 67-135 31-41 69-74 101-86 11-4 25-6 32-5 9 1 14 6 14 14-1 4-3 9-13 28-12 22-16 37-16 61 0 23 3 38 11 54 9 20 23 33 41 42 11 6 18 8 33 9 18 2 36-1 51-8 32-15 53-47 60-89 2-14 2-46 0-60a148 148 0 0 0-137-132c-38-4-76 2-111 18-58 26-105 80-150 170-21 45-43 103-60 158l-3 13-1-180v-180h-4l-156 8zm2327 1175-15 6c-24 12-44 17-70 19-13 1-18 3-18 6 0 5 2 5 22 6 21 1 24 1 26 6 1 3 2 45 2 232 0 201-1 228-2 229-3 4-8 5-26 6-18 0-18 0-20 2-1 3 0 6 3 8h43a1107 1107 0 0 1 109 0c4-3 4-7 1-9-1-1-10-2-22-2l-21-2c-5-3-4 8-5-247 0-228-1-241-2-250-2-10-3-11-5-10zm3267 5c-28 13-45 17-74 20-16 1-20 3-17 9 1 3 3 3 24 3 20 0 22 1 24 8 2 6 1 455 0 458-3 5-8 6-27 7l-19 1c-2 2-1 7 1 8 2 2 8 2 44 1h73c37 1 38 1 39-5 0-5-2-5-23-6l-21-2c-6-2-5 13-6-241l-1-245c-1-12-3-22-4-22l-13 6zm321 1c-25 11-42 16-69 19-17 1-20 2-21 6 0 5 2 6 22 6 18 0 22 1 25 5l3 3v228c0 188-1 229-2 231-2 4-7 5-27 6-14 0-18 1-19 2v6c2 3 5 3 46 2a1075 1075 0 0 1 106 1c6-2 8-8 4-10-1-1-10-2-22-2-21-1-24-2-25-7l-1-234-1-243c-1-15-3-26-5-26l-14 7zm-2759 0c-14 6-32 12-43 15l-26 1c-16-1-18-1-20 1-3 2-3 8 0 10h26c8-1 9-1 12 1l6 5c5 10 6 26 6 112v74l-4-5a83 83 0 0 0-47-28c-11-2-38-2-51 0-28 6-49 17-69 37-27 27-42 61-47 106-2 15-1 50 1 63 7 38 22 68 46 93 23 23 49 35 82 38 31 3 59-6 81-26l5-4v13c0 13 0 14 2 16l4 2 12-6c23-11 38-14 69-14 21 0 24-1 25-5 0-5-3-6-19-6-15-1-23-2-25-4-2-3-3-48-4-264 0-203 0-224-2-227-2-5-5-5-20 2zm-91 201c16 3 33 15 40 28 4 7 8 20 10 34 3 23 2 160-1 188a66 66 0 0 1-65 57c-13 1-17-1-29-7-9-4-25-19-30-28-11-19-20-52-24-86-2-19-1-65 1-81 4-22 10-44 17-58 10-21 26-37 41-44 12-5 28-6 40-3zm1480-199c-4 1-6 3-6 7s2 5 25 6c33 1 40 5 49 23a5385 5385 0 0 1 99 276 10892 10892 0 0 1 69 199c5 10 7 12 11 8a5019 5019 0 0 1 96-291l65-179c8-19 16-28 25-32 7-3 22-5 31-5s15-1 17-4c2-2 2-2 1-4-2-5-6-5-32-4a715 715 0 0 1-100 0c-19-1-21 0-24 1-5 3-6 5-6 8 1 4 5 5 27 5l26 1c11 3 16 9 15 17l-29 93c-31 92-91 264-92 263l-20-59a16439 16439 0 0 0-100-291c-4-14-4-14-3-17 4-5 7-5 36-6 41-2 49-3 50-9 0-2-1-3-3-5a4351 4351 0 0 1-227-1zm-3480 3c-2 1-3 6-1 8 1 2 4 2 14 3 34 3 38 4 40 11l2 228-1 230c-1 10-6 12-32 14l-19 3c-6 2-7 8-1 10 3 1 176 2 181 0l4-4c1-5-3-6-21-8-21-2-31-5-34-10-3-7-3-12-4-129v-116h221v118a3687 3687 0 0 1-4 131c-2 3-11 5-22 6-12 0-26 3-29 5-4 2-4 5 1 7 3 2 177 2 181 0 3-2 4-7 2-9-1-1-6-2-16-2-17-1-28-3-33-6-7-5-7 11-7-238 0-250 0-232 7-237 4-2 5-2 27-4 18-1 23-3 23-7 0-6 2-6-95-6h-88l-3 2c-2 2-2 3-2 6 2 4 5 5 18 5 15 0 25 1 30 4 4 1 5 2 6 7 4 9 4 20 4 110v90h-221v-96l2-101c2-10 6-12 29-13 24-1 28-3 26-9-2-5-5-5-33-4a2259 2259 0 0 1-152 0zm1555 14c-9 2-16 7-19 14l-3 11c-4 23 10 40 33 40 14 0 23-4 28-14 3-5 3-7 4-16 0-18-4-28-16-33-6-3-21-4-27-2zm2621 0c-5 1-11 5-15 8-4 5-6 12-7 23 0 9 0 10 2 15 3 7 9 13 16 16 4 2 6 2 16 2 13 1 17-1 23-7 9-8 12-30 5-44-3-5-9-10-15-12-5-1-20-2-25-1zm-2587 168c-21 12-45 19-76 22l-17 2c-3 2-3 5-1 7 1 2 3 2 21 2 25 1 23 0 24 15l1 134c0 95-1 125-2 127-1 4-6 5-24 6-16 1-19 1-21 5-3 6 4 10 12 7l55-1 65 1c22 2 27 1 27-5 0-5-2-5-17-6-26-1-32-4-33-13l-1-144-1-145c-1-8-4-18-5-18l-7 4zm2624-1c-21 12-47 21-79 23l-17 3c-2 1-3 5-1 7l22 1c13 0 20 1 21 2 3 3 3 10 4 124 0 114-1 149-3 152-2 2-8 3-24 4-14 1-18 2-20 4-1 2-1 7 1 8a1506 1506 0 0 1 151 1c6-1 9-5 6-9-2-2-4-2-17-3-17-1-27-3-31-6-1-2-2-4-2-17l-1-146c0-134 0-139-4-148-1-4-2-4-7 0zm-3405-1c-26 3-50 13-71 29-16 12-35 36-44 54-18 36-24 83-16 126 11 56 52 104 104 121 18 5 25 7 49 6 23 0 32-1 50-7 49-17 88-65 98-122 3-14 4-45 2-60-3-30-12-57-27-79a149 149 0 0 0-145-68zm41 13c21 5 33 16 44 37 8 17 15 42 19 69 2 17 3 63 1 81-3 42-14 76-30 101-8 12-15 18-29 23-6 2-9 2-20 2-22 0-37-5-51-19-17-16-28-36-35-65-11-46-10-112 2-156 7-23 16-40 29-54 11-12 23-18 37-21 8-1 24 0 33 2zm1584-13c-45 3-80 27-92 62-2 8-4 22-3 31 2 12 10 24 21 30 5 2 6 3 17 3 12 0 13-1 18-3l7-5c6-7 9-23 6-33-4-11-14-20-23-20-6 0-8-2-8-8 0-16 11-31 29-40 9-5 17-6 31-6 11 0 13 0 20 2 10 4 15 7 21 14 14 15 17 34 17 89v35l-15 4c-21 4-42 10-55 14-20 7-41 20-56 34a95 95 0 0 0-27 41c-4 13-4 33-1 46a68 68 0 0 0 71 46c20 0 28-1 42-8 16-8 29-21 38-37l5-7 1 10c5 27 22 41 51 41 22 0 53-11 68-25 9-8 12-19 5-19-2 0-5 2-12 8a40 40 0 0 1-27 14c-8 2-13 0-19-5-4-5-7-12-8-24l-1-104c0-95-1-111-4-127-5-25-26-43-60-50-15-3-39-5-57-3zm62 211c-1 54-1 53-9 66-13 19-30 28-49 27-28-3-47-30-42-63 3-22 12-37 30-50 7-5 25-14 38-18l31-9 1 47zm2701-211c-38 4-68 22-83 50-5 9-7 16-8 27-2 17 2 30 12 39 8 8 12 10 27 10 11 0 12-1 17-3 7-4 11-10 13-19 2-12 0-22-7-31-3-4-11-8-16-8l-6-2c-2-1-2-2-2-8 2-27 32-47 65-45 29 3 45 19 51 51 2 15 3 40 3 66v24l-16 4c-21 4-42 10-54 14-37 13-70 39-81 67-4 11-6 21-6 34 0 21 4 32 18 46a68 68 0 0 0 55 20c14 0 18 0 25-2 25-7 44-22 58-46l2-4v6c4 31 24 47 57 45l18-3c25-6 50-22 53-33 2-5 1-7-3-8-2 0-4 2-11 7-9 9-12 11-19 13-18 6-29 1-34-15l-2-6-1-110-2-119c-2-13-4-18-9-26-12-20-36-32-73-35h-41zm66 204c0 39-1 55-3 62-2 6-10 17-16 24a48 48 0 0 1-46 13c-9-3-14-6-21-12a58 58 0 0 1-15-45c2-40 28-63 89-79l11-3 1 40zm407-204c-54 6-92 39-102 88-5 26-3 53 6 74 5 12 14 25 25 36l9 9-6 3c-17 5-32 14-43 26a62 62 0 0 0-17 45c0 25 13 44 40 57l11 6-9 2c-13 4-28 9-36 13-11 6-24 19-29 29-7 12-8 20-8 37 0 18 1 26 8 39 10 19 27 33 51 42 21 9 39 12 73 11 27 0 43-1 65-7 40-10 77-34 99-63 10-14 16-27 21-45 2-9 2-11 2-30 0-24-1-30-9-46a79 79 0 0 0-51-40c-24-6-50-5-104 3-47 8-67 6-79-8-9-10-12-28-5-40 6-12 20-23 32-25l21 4c27 8 32 9 47 9 21 1 36-3 54-12 30-15 53-43 60-75 5-19 5-36-1-67-3-21-3-26 0-32 4-10 14-18 22-18s12 5 9 15c-3 14-3 15-2 19 2 6 6 11 14 14 5 3 6 3 15 3 10-1 14-2 19-7 6-6 7-11 8-24 0-11 0-13-2-18-7-18-27-26-53-20-14 3-31 14-40 27l-4 5-5-4c-26-22-37-29-57-33-12-2-37-3-49-2zm28 11c4 0 8 2 10 3 6 3 16 13 20 20 12 20 18 58 15 99-2 29-5 45-13 60a45 45 0 0 1-48 26c-18-2-30-11-39-28-4-7-10-24-12-38-2-12-2-17-2-43 0-33 0-42 6-58 7-23 19-37 36-41 7-2 20-2 27 0zm59 328c12 3 21 8 28 14 10 11 15 24 15 44 0 25-9 46-28 66-23 22-52 35-88 38-56 5-99-19-110-61-5-21-2-48 8-65 3-7 13-18 20-22 6-3 7-4 16-4l54-7a270 270 0 0 1 85-3zm408-339c-47 6-86 35-110 82-15 29-21 58-20 96a160 160 0 0 0 49 115 139 139 0 0 0 100 44c25 1 44-3 62-12 21-10 38-27 55-56 8-15 10-24 4-26-4-1-7 1-12 9-17 29-32 47-45 53-12 5-21 7-37 7-22 1-38-3-53-13-14-8-29-26-38-43-6-13-13-36-16-57-2-13-2-62 0-76l1-10h18a4826 4826 0 0 1 174-3l7-2h3v-8a102 102 0 0 0-32-66c-18-17-38-27-63-32-12-2-35-3-47-2zm36 13c8 3 14 6 20 12 13 13 21 34 24 65v8h-68c-65 0-69 0-69-2 0-4 6-27 10-35 11-30 28-45 53-50 7-1 22 0 29 2zm-3465-5c-2 2-4 5-2 8 1 3 6 4 23 5l17 2c5 2 9 14 42 104l75 199 7 20-2 8a844 844 0 0 1-47 123c-3 2-3 2-5 1-2 0-4-3-6-5-8-14-9-15-16-19-7-3-8-4-16-3-8 0-10 0-15 2-7 4-11 7-14 13-3 5-3 7-4 14 0 12 2 19 9 26 14 16 43 17 63 1 12-9 25-30 35-56 28-75 64-187 110-337 20-64 26-83 30-88 3-5 8-6 23-7l17-2c3-1 4-2 4-5 0-5-4-6-15-4-9 2-13 2-41 2l-40-2c-9-2-13 0-14 4 0 5 2 6 11 6 16 0 29 2 31 4 3 2 2 10-5 36l-63 200-2-4-11-27a2423 2423 0 0 1-61-170l-9-27c0-4 0-5 2-7 3-1 10-3 29-4 16-1 21-4 18-9-2-3-5-3-34-2a728 728 0 0 1-124 0zm-3733 104-268 35 540 68 537-68-265-35-273-34-271 34zm348 25 74 10-75 10-75 9-71-9-75-10c-3 0-2-1 7-2l75-9 66-8 74 9zm7409-24c-196 24-267 34-264 34l537 68 540-68-542-69-271 34zm420 33c2 1 2 1-1 1l-75 10-71 9-75-9-75-10 75-10 75-10 72 10 75 9z"/></g></svg>