<svg xmlns="http://www.w3.org/2000/svg" version="1.2" viewBox="0 0 30 30"><defs><clipPath id="a"><path d="M.484 0h29.032v29.031H.484Zm0 0"/></clipPath></defs><g clip-path="url(#a)"><path d="M15 0C6.992 0 .484 6.508.484 14.516.484 22.527 6.992 29.03 15 29.03s14.516-6.504 14.516-14.515C29.516 6.508 23.008 0 15 0Zm0 1.262c7.328 0 13.254 5.925 13.254 13.254 0 7.328-5.926 13.254-13.254 13.254-7.328 0-13.254-5.926-13.254-13.254C1.746 7.187 7.672 1.262 15 1.262Zm-6.309 8.836H6.145s-.149-.008-.325.015c-.175.024-.433.035-.703.336v.004a.893.893 0 0 0-.199.758c.031.176.094.305.098.305.023.062 1.87 4.593 4.203 7.027 1.644 1.719 3.402 2.285 4.969 2.285H15c.266 0 .508-.012.77-.148.265-.137.492-.516.492-.809 0-.316.008-.625.047-.797.039-.156.023-.117.039-.12a.63.63 0 0 1 .097.034c.11.051.285.164.477.313.387.3.844.734 1.355 1.07.73.484 1.528.457 1.528.457h2.625l.027-.004s.402-.008.816-.262c.207-.125.454-.359.536-.707.082-.347-.024-.714-.227-1.035-.074-.117-.434-.64-1.867-1.914-.371-.328-.625-.562-.727-.683-.035-.047-.039-.043-.043-.043.008-.024.09-.196.313-.485.23-.3.582-.718 1.035-1.297a9.22 9.22 0 0 0 1.23-2.03 4.62 4.62 0 0 0 .274-.813c.055-.246.098-.45.015-.739a.92.92 0 0 0-.378-.511 1.126 1.126 0 0 0-.438-.164c-.266-.051-.5-.043-.719-.043-.457 0-2.488.015-2.656.015-.195 0-.508.082-.656.168-.36.203-.473.489-.473.489l-.035.058-.02.07s-.46 1.497-.937 2.266c-.559.906-.977 1.27-1.16 1.371-.02.012-.008.004-.024.012-.011-.043-.03-.098-.043-.207-.027-.238-.011-.578-.011-.902 0-.907.07-1.473-.008-2.004-.035-.27-.133-.567-.352-.797-.218-.227-.5-.34-.785-.407-.293-.066-.613-.125-1.375-.132-.969-.008-1.601.023-2.164.273l-.004.004h-.008a1.875 1.875 0 0 0-.55.383c-.075.082-.168.14-.23.394a.706.706 0 0 0 .109.563.69.69 0 0 0 .46.265c-.02 0 .094.024.184.067.09.047.168.11.188.133v.004c-.008-.012.078.199.097.394.024.195.02.352.02.352v.035l.004.039s.039.43.02.871c-.013.223-.04.445-.079.582 0 .008 0 .004-.004.012-.156-.11-.523-.496-1.023-1.324-.465-.766-.899-2.149-.899-2.149l-.011-.027-.012-.031s-.078-.31-.438-.56c-.336-.237-.656-.269-.656-.269Zm-.148 1.261c.035.016.113.043.125.047l-.016-.043s.02.043.024.047c-.031-.02-.004 0 0 .004.02.063.402 1.39 1.004 2.383.55.906.953 1.414 1.398 1.715.442.304 1.035.273 1.336.117.402-.211.516-.555.594-.84.078-.289.105-.578.117-.855a7.845 7.845 0 0 0-.02-.996c0-.024.008-.231-.027-.504-.031-.282-.09-.625-.336-.973.278-.043.43-.106.988-.102.715.008.825.04 1.102.102.156.035.172.066.156.05-.015-.015 0-.027.016.098.035.243-.004.871-.004 1.829 0 .269-.027.648.02 1.042.043.399.168.907.648 1.204.273.168.793.226 1.285-.047.496-.274 1-.801 1.621-1.813.613-.996.985-2.304 1.024-2.441 0 0 .007-.008.011-.008h.012c.234 0 2.23-.016 2.656-.016.118 0 .168.008.258.012a3.188 3.188 0 0 1-.172.5 7.884 7.884 0 0 1-1.066 1.75c-.438.559-.777.965-1.04 1.305-.26.336-.464.605-.55.992-.086.387.078.82.3 1.098.223.273.5.507.868.836 1.387 1.23 1.617 1.605 1.637 1.64.023.04.008 0 .02.02l-.184.054h-2.555s-.473-.015-.82-.246v-.004h-.004c-.367-.242-.813-.656-1.274-1.011a3.624 3.624 0 0 0-.73-.465c-.274-.125-.613-.211-.977-.102-.523.157-.812.653-.906 1.047-.066.285-.055.531-.059.777-.02.004-.003.004-.023.004h-.813c-1.28 0-2.617-.394-4.054-1.898-1.875-1.953-3.543-5.73-3.793-6.305Zm11.008.008a.195.195 0 0 0 .05.004c-.003.004 0 0-.007.004 0-.012-.028-.012-.043-.008Zm0 0" style="stroke:none;fill-rule:nonzero;fill:#d9d9d9;fill-opacity:1"/></g></svg>